<mxfile host="app.diagrams.net" modified="2024-02-29T19:45:37.621Z" agent="Mozilla/5.0 (Windows NT 10.0; Win64; x64) AppleWebKit/537.36 (KHTML, like Gecko) Chrome/122.0.0.0 Safari/537.36" etag="u05fjzimowdSreWmASsu" version="23.1.7" type="device">
  <diagram name="Seite-1" id="7rTYiddVvyqRAavNUq9E">
    <mxGraphModel dx="12881" dy="1576" grid="1" gridSize="10" guides="1" tooltips="1" connect="1" arrows="1" fold="1" page="1" pageScale="1" pageWidth="11750" pageHeight="1989" math="0" shadow="0">
      <root>
        <mxCell id="0" />
        <mxCell id="1" parent="0" />
        <mxCell id="dkvvjcpOpQGwpekbOjjR-24" style="rounded=0;orthogonalLoop=1;jettySize=auto;html=1;exitX=1;exitY=0.5;exitDx=0;exitDy=0;endArrow=none;endFill=0;entryX=0;entryY=0.5;entryDx=0;entryDy=0;" parent="1" target="dkvvjcpOpQGwpekbOjjR-22" edge="1" source="PYq-RoQoB3Z_iifi9EzM-20">
          <mxGeometry relative="1" as="geometry">
            <mxPoint x="202" y="370" as="sourcePoint" />
            <mxPoint x="510" y="690" as="targetPoint" />
          </mxGeometry>
        </mxCell>
        <mxCell id="dkvvjcpOpQGwpekbOjjR-20" style="rounded=0;orthogonalLoop=1;jettySize=auto;html=1;exitX=0.5;exitY=1;exitDx=0;exitDy=0;entryX=0.5;entryY=0;entryDx=0;entryDy=0;endArrow=none;endFill=0;" parent="1" source="dkvvjcpOpQGwpekbOjjR-17" target="dkvvjcpOpQGwpekbOjjR-19" edge="1">
          <mxGeometry relative="1" as="geometry" />
        </mxCell>
        <mxCell id="dkvvjcpOpQGwpekbOjjR-21" style="rounded=0;orthogonalLoop=1;jettySize=auto;html=1;exitX=0.5;exitY=1;exitDx=0;exitDy=0;entryX=0.5;entryY=0;entryDx=0;entryDy=0;endArrow=none;endFill=0;strokeColor=default;" parent="1" source="dkvvjcpOpQGwpekbOjjR-102" target="dkvvjcpOpQGwpekbOjjR-18" edge="1">
          <mxGeometry relative="1" as="geometry" />
        </mxCell>
        <mxCell id="dkvvjcpOpQGwpekbOjjR-17" value="Organisms" style="rounded=0;whiteSpace=wrap;html=1;" parent="1" vertex="1">
          <mxGeometry x="680" y="760" width="120" height="60" as="geometry" />
        </mxCell>
        <mxCell id="dkvvjcpOpQGwpekbOjjR-18" value="&lt;u&gt;id&lt;/u&gt;" style="ellipse;whiteSpace=wrap;html=1;" parent="1" vertex="1">
          <mxGeometry x="-215" y="330" width="110" height="40" as="geometry" />
        </mxCell>
        <mxCell id="dkvvjcpOpQGwpekbOjjR-19" value="name" style="ellipse;whiteSpace=wrap;html=1;" parent="1" vertex="1">
          <mxGeometry x="742" y="870" width="110" height="40" as="geometry" />
        </mxCell>
        <mxCell id="dkvvjcpOpQGwpekbOjjR-23" style="rounded=0;orthogonalLoop=1;jettySize=auto;html=1;exitX=1;exitY=0.5;exitDx=0;exitDy=0;entryX=0.5;entryY=0;entryDx=0;entryDy=0;" parent="1" source="dkvvjcpOpQGwpekbOjjR-22" target="dkvvjcpOpQGwpekbOjjR-17" edge="1">
          <mxGeometry relative="1" as="geometry">
            <mxPoint x="568" y="800" as="sourcePoint" />
            <mxPoint x="328" y="660" as="targetPoint" />
          </mxGeometry>
        </mxCell>
        <mxCell id="dkvvjcpOpQGwpekbOjjR-22" value="requires" style="rhombus;whiteSpace=wrap;html=1;" parent="1" vertex="1">
          <mxGeometry x="513" y="640" width="120" height="80" as="geometry" />
        </mxCell>
        <mxCell id="dkvvjcpOpQGwpekbOjjR-33" style="rounded=0;orthogonalLoop=1;jettySize=auto;html=1;exitX=0;exitY=0.5;exitDx=0;exitDy=0;entryX=1;entryY=0.5;entryDx=0;entryDy=0;endArrow=none;endFill=0;" parent="1" source="dkvvjcpOpQGwpekbOjjR-27" target="dkvvjcpOpQGwpekbOjjR-31" edge="1">
          <mxGeometry relative="1" as="geometry" />
        </mxCell>
        <mxCell id="dkvvjcpOpQGwpekbOjjR-34" style="rounded=0;orthogonalLoop=1;jettySize=auto;html=1;exitX=0.5;exitY=1;exitDx=0;exitDy=0;entryX=0.5;entryY=0;entryDx=0;entryDy=0;endArrow=none;endFill=0;" parent="1" source="dkvvjcpOpQGwpekbOjjR-27" target="dkvvjcpOpQGwpekbOjjR-29" edge="1">
          <mxGeometry relative="1" as="geometry" />
        </mxCell>
        <mxCell id="dkvvjcpOpQGwpekbOjjR-27" value="Keywords" style="rounded=0;whiteSpace=wrap;html=1;" parent="1" vertex="1">
          <mxGeometry x="820" y="550" width="120" height="60" as="geometry" />
        </mxCell>
        <mxCell id="dkvvjcpOpQGwpekbOjjR-29" value="&lt;u&gt;id&lt;/u&gt;" style="ellipse;whiteSpace=wrap;html=1;" parent="1" vertex="1">
          <mxGeometry x="747" y="650" width="110" height="40" as="geometry" />
        </mxCell>
        <mxCell id="dkvvjcpOpQGwpekbOjjR-32" style="rounded=0;orthogonalLoop=1;jettySize=auto;html=1;exitX=0;exitY=0.5;exitDx=0;exitDy=0;entryX=1;entryY=0.5;entryDx=0;entryDy=0;" parent="1" source="dkvvjcpOpQGwpekbOjjR-31" edge="1" target="PYq-RoQoB3Z_iifi9EzM-20">
          <mxGeometry relative="1" as="geometry">
            <mxPoint x="622" y="400" as="targetPoint" />
          </mxGeometry>
        </mxCell>
        <mxCell id="dkvvjcpOpQGwpekbOjjR-31" value="requires" style="rhombus;whiteSpace=wrap;html=1;" parent="1" vertex="1">
          <mxGeometry x="504" y="510" width="120" height="80" as="geometry" />
        </mxCell>
        <mxCell id="dkvvjcpOpQGwpekbOjjR-98" style="rounded=0;orthogonalLoop=1;jettySize=auto;html=1;exitX=0;exitY=0.5;exitDx=0;exitDy=0;entryX=1;entryY=0.5;entryDx=0;entryDy=0;endArrow=none;endFill=0;" parent="1" source="dkvvjcpOpQGwpekbOjjR-92" target="dkvvjcpOpQGwpekbOjjR-94" edge="1">
          <mxGeometry relative="1" as="geometry" />
        </mxCell>
        <mxCell id="dkvvjcpOpQGwpekbOjjR-99" style="rounded=0;orthogonalLoop=1;jettySize=auto;html=1;exitX=0;exitY=0.5;exitDx=0;exitDy=0;endArrow=none;endFill=0;entryX=1;entryY=0.5;entryDx=0;entryDy=0;" parent="1" source="dkvvjcpOpQGwpekbOjjR-92" target="dkvvjcpOpQGwpekbOjjR-95" edge="1">
          <mxGeometry relative="1" as="geometry" />
        </mxCell>
        <mxCell id="dkvvjcpOpQGwpekbOjjR-100" style="rounded=0;orthogonalLoop=1;jettySize=auto;html=1;exitX=0;exitY=0.5;exitDx=0;exitDy=0;entryX=1;entryY=0.5;entryDx=0;entryDy=0;endArrow=none;endFill=0;" parent="1" source="dkvvjcpOpQGwpekbOjjR-92" target="dkvvjcpOpQGwpekbOjjR-96" edge="1">
          <mxGeometry relative="1" as="geometry" />
        </mxCell>
        <mxCell id="PYq-RoQoB3Z_iifi9EzM-41" style="edgeStyle=orthogonalEdgeStyle;rounded=0;orthogonalLoop=1;jettySize=auto;html=1;exitX=1;exitY=0.5;exitDx=0;exitDy=0;entryX=0;entryY=0.5;entryDx=0;entryDy=0;endArrow=none;endFill=0;startArrow=classic;startFill=1;" edge="1" parent="1" source="dkvvjcpOpQGwpekbOjjR-92" target="dkvvjcpOpQGwpekbOjjR-103">
          <mxGeometry relative="1" as="geometry" />
        </mxCell>
        <mxCell id="dkvvjcpOpQGwpekbOjjR-92" value="Homestrad" style="rounded=0;whiteSpace=wrap;html=1;" parent="1" vertex="1">
          <mxGeometry x="-580" y="240" width="120" height="60" as="geometry" />
        </mxCell>
        <mxCell id="dkvvjcpOpQGwpekbOjjR-94" value="&lt;u&gt;id&lt;/u&gt;" style="ellipse;whiteSpace=wrap;html=1;" parent="1" vertex="1">
          <mxGeometry x="-740" y="199" width="110" height="40" as="geometry" />
        </mxCell>
        <mxCell id="dkvvjcpOpQGwpekbOjjR-95" value="family" style="ellipse;whiteSpace=wrap;html=1;" parent="1" vertex="1">
          <mxGeometry x="-740" y="249" width="110" height="40" as="geometry" />
        </mxCell>
        <mxCell id="dkvvjcpOpQGwpekbOjjR-96" value="alignment" style="ellipse;whiteSpace=wrap;html=1;" parent="1" vertex="1">
          <mxGeometry x="-740" y="299" width="110" height="40" as="geometry" />
        </mxCell>
        <mxCell id="dkvvjcpOpQGwpekbOjjR-105" style="rounded=0;orthogonalLoop=1;jettySize=auto;html=1;exitX=0;exitY=0.5;exitDx=0;exitDy=0;entryX=1;entryY=0.5;entryDx=0;entryDy=0;endArrow=none;endFill=0;startArrow=none;startFill=0;" parent="1" source="dkvvjcpOpQGwpekbOjjR-102" target="dkvvjcpOpQGwpekbOjjR-103" edge="1">
          <mxGeometry relative="1" as="geometry" />
        </mxCell>
        <mxCell id="PYq-RoQoB3Z_iifi9EzM-39" style="rounded=0;orthogonalLoop=1;jettySize=auto;html=1;exitX=1;exitY=0.5;exitDx=0;exitDy=0;entryX=0;entryY=0.5;entryDx=0;entryDy=0;endArrow=none;endFill=0;" edge="1" parent="1" source="dkvvjcpOpQGwpekbOjjR-102" target="dkvvjcpOpQGwpekbOjjR-106">
          <mxGeometry relative="1" as="geometry" />
        </mxCell>
        <mxCell id="dkvvjcpOpQGwpekbOjjR-102" value="Alignments" style="rounded=0;whiteSpace=wrap;html=1;" parent="1" vertex="1">
          <mxGeometry x="-220" y="240" width="120" height="60" as="geometry" />
        </mxCell>
        <mxCell id="dkvvjcpOpQGwpekbOjjR-103" value="requires" style="rhombus;whiteSpace=wrap;html=1;" parent="1" vertex="1">
          <mxGeometry x="-400" y="230" width="120" height="80" as="geometry" />
        </mxCell>
        <mxCell id="PYq-RoQoB3Z_iifi9EzM-50" style="edgeStyle=orthogonalEdgeStyle;rounded=0;orthogonalLoop=1;jettySize=auto;html=1;exitX=1;exitY=0.5;exitDx=0;exitDy=0;entryX=0;entryY=0.5;entryDx=0;entryDy=0;" edge="1" parent="1" source="dkvvjcpOpQGwpekbOjjR-106" target="PYq-RoQoB3Z_iifi9EzM-48">
          <mxGeometry relative="1" as="geometry" />
        </mxCell>
        <mxCell id="dkvvjcpOpQGwpekbOjjR-106" value="requires" style="rhombus;whiteSpace=wrap;html=1;" parent="1" vertex="1">
          <mxGeometry x="10" y="230" width="120" height="80" as="geometry" />
        </mxCell>
        <mxCell id="dkvvjcpOpQGwpekbOjjR-109" style="rounded=0;orthogonalLoop=1;jettySize=auto;html=1;exitX=0.5;exitY=1;exitDx=0;exitDy=0;entryX=0.5;entryY=0;entryDx=0;entryDy=0;endArrow=none;endFill=0;strokeColor=default;" parent="1" target="dkvvjcpOpQGwpekbOjjR-110" edge="1" source="dkvvjcpOpQGwpekbOjjR-17">
          <mxGeometry relative="1" as="geometry">
            <mxPoint x="742" y="840" as="sourcePoint" />
          </mxGeometry>
        </mxCell>
        <mxCell id="dkvvjcpOpQGwpekbOjjR-110" value="&lt;u&gt;id&lt;/u&gt;" style="ellipse;whiteSpace=wrap;html=1;" parent="1" vertex="1">
          <mxGeometry x="624" y="870" width="110" height="40" as="geometry" />
        </mxCell>
        <mxCell id="PYq-RoQoB3Z_iifi9EzM-43" style="rounded=0;orthogonalLoop=1;jettySize=auto;html=1;exitX=0.5;exitY=1;exitDx=0;exitDy=0;endArrow=none;endFill=0;" edge="1" parent="1" source="PYq-RoQoB3Z_iifi9EzM-20" target="PYq-RoQoB3Z_iifi9EzM-42">
          <mxGeometry relative="1" as="geometry" />
        </mxCell>
        <mxCell id="PYq-RoQoB3Z_iifi9EzM-20" value="Sequences" style="rounded=0;whiteSpace=wrap;html=1;" vertex="1" parent="1">
          <mxGeometry x="290" y="590" width="120" height="60" as="geometry" />
        </mxCell>
        <mxCell id="PYq-RoQoB3Z_iifi9EzM-22" style="rounded=0;orthogonalLoop=1;jettySize=auto;html=1;exitX=0.5;exitY=1;exitDx=0;exitDy=0;entryX=0.5;entryY=0;entryDx=0;entryDy=0;endArrow=none;endFill=0;" edge="1" parent="1" target="PYq-RoQoB3Z_iifi9EzM-23" source="PYq-RoQoB3Z_iifi9EzM-20">
          <mxGeometry relative="1" as="geometry">
            <mxPoint x="414" y="800" as="sourcePoint" />
          </mxGeometry>
        </mxCell>
        <mxCell id="PYq-RoQoB3Z_iifi9EzM-23" value="prim_struct" style="ellipse;whiteSpace=wrap;html=1;" vertex="1" parent="1">
          <mxGeometry x="102" y="790" width="110" height="40" as="geometry" />
        </mxCell>
        <mxCell id="PYq-RoQoB3Z_iifi9EzM-24" style="rounded=0;orthogonalLoop=1;jettySize=auto;html=1;exitX=0.5;exitY=1;exitDx=0;exitDy=0;endArrow=none;endFill=0;entryX=0.5;entryY=0;entryDx=0;entryDy=0;" edge="1" parent="1" source="PYq-RoQoB3Z_iifi9EzM-20" target="PYq-RoQoB3Z_iifi9EzM-25">
          <mxGeometry relative="1" as="geometry">
            <mxPoint x="360" y="660" as="sourcePoint" />
            <mxPoint x="180" y="740" as="targetPoint" />
          </mxGeometry>
        </mxCell>
        <mxCell id="PYq-RoQoB3Z_iifi9EzM-25" value="&lt;u&gt;id&lt;/u&gt;" style="ellipse;whiteSpace=wrap;html=1;" vertex="1" parent="1">
          <mxGeometry x="222" y="790" width="110" height="40" as="geometry" />
        </mxCell>
        <mxCell id="PYq-RoQoB3Z_iifi9EzM-27" style="rounded=0;orthogonalLoop=1;jettySize=auto;html=1;exitX=0.5;exitY=1;exitDx=0;exitDy=0;entryX=0.5;entryY=0;entryDx=0;entryDy=0;endArrow=none;endFill=0;" edge="1" parent="1" target="PYq-RoQoB3Z_iifi9EzM-29" source="PYq-RoQoB3Z_iifi9EzM-20">
          <mxGeometry relative="1" as="geometry">
            <mxPoint x="353" y="750" as="sourcePoint" />
          </mxGeometry>
        </mxCell>
        <mxCell id="PYq-RoQoB3Z_iifi9EzM-29" value="source" style="ellipse;whiteSpace=wrap;html=1;" vertex="1" parent="1">
          <mxGeometry x="363" y="787" width="110" height="40" as="geometry" />
        </mxCell>
        <mxCell id="PYq-RoQoB3Z_iifi9EzM-47" style="edgeStyle=orthogonalEdgeStyle;rounded=0;orthogonalLoop=1;jettySize=auto;html=1;exitX=0.5;exitY=1;exitDx=0;exitDy=0;entryX=0.5;entryY=0;entryDx=0;entryDy=0;" edge="1" parent="1" source="PYq-RoQoB3Z_iifi9EzM-31" target="PYq-RoQoB3Z_iifi9EzM-20">
          <mxGeometry relative="1" as="geometry" />
        </mxCell>
        <mxCell id="PYq-RoQoB3Z_iifi9EzM-31" value="belongs to*" style="rhombus;whiteSpace=wrap;html=1;" vertex="1" parent="1">
          <mxGeometry x="290" y="440" width="120" height="80" as="geometry" />
        </mxCell>
        <mxCell id="PYq-RoQoB3Z_iifi9EzM-33" value="type" style="ellipse;whiteSpace=wrap;html=1;" vertex="1" parent="1">
          <mxGeometry x="-30" y="790" width="110" height="40" as="geometry" />
        </mxCell>
        <mxCell id="PYq-RoQoB3Z_iifi9EzM-34" style="rounded=0;orthogonalLoop=1;jettySize=auto;html=1;exitX=0.5;exitY=1;exitDx=0;exitDy=0;entryX=0.5;entryY=0;entryDx=0;entryDy=0;endArrow=none;endFill=0;" edge="1" parent="1" source="PYq-RoQoB3Z_iifi9EzM-20" target="PYq-RoQoB3Z_iifi9EzM-33">
          <mxGeometry relative="1" as="geometry">
            <mxPoint x="360" y="660" as="sourcePoint" />
            <mxPoint x="167" y="800" as="targetPoint" />
          </mxGeometry>
        </mxCell>
        <mxCell id="PYq-RoQoB3Z_iifi9EzM-36" style="rounded=0;orthogonalLoop=1;jettySize=auto;html=1;exitX=0.5;exitY=0;exitDx=0;exitDy=0;entryX=0.5;entryY=1;entryDx=0;entryDy=0;endArrow=none;endFill=0;" edge="1" parent="1" source="PYq-RoQoB3Z_iifi9EzM-35" target="dkvvjcpOpQGwpekbOjjR-27">
          <mxGeometry relative="1" as="geometry" />
        </mxCell>
        <mxCell id="PYq-RoQoB3Z_iifi9EzM-35" value="type" style="ellipse;whiteSpace=wrap;html=1;" vertex="1" parent="1">
          <mxGeometry x="880" y="650" width="110" height="40" as="geometry" />
        </mxCell>
        <mxCell id="PYq-RoQoB3Z_iifi9EzM-38" style="rounded=0;orthogonalLoop=1;jettySize=auto;html=1;exitX=0.5;exitY=0;exitDx=0;exitDy=0;entryX=0.5;entryY=1;entryDx=0;entryDy=0;endArrow=none;endFill=0;" edge="1" parent="1" source="PYq-RoQoB3Z_iifi9EzM-37" target="dkvvjcpOpQGwpekbOjjR-27">
          <mxGeometry relative="1" as="geometry" />
        </mxCell>
        <mxCell id="PYq-RoQoB3Z_iifi9EzM-37" value="value" style="ellipse;whiteSpace=wrap;html=1;" vertex="1" parent="1">
          <mxGeometry x="1015" y="650" width="110" height="40" as="geometry" />
        </mxCell>
        <mxCell id="PYq-RoQoB3Z_iifi9EzM-42" value="source_id*" style="ellipse;whiteSpace=wrap;html=1;" vertex="1" parent="1">
          <mxGeometry x="504" y="790" width="110" height="40" as="geometry" />
        </mxCell>
        <mxCell id="PYq-RoQoB3Z_iifi9EzM-49" style="edgeStyle=orthogonalEdgeStyle;rounded=0;orthogonalLoop=1;jettySize=auto;html=1;exitX=0.5;exitY=1;exitDx=0;exitDy=0;endArrow=none;endFill=0;" edge="1" parent="1" source="PYq-RoQoB3Z_iifi9EzM-48" target="PYq-RoQoB3Z_iifi9EzM-31">
          <mxGeometry relative="1" as="geometry" />
        </mxCell>
        <mxCell id="PYq-RoQoB3Z_iifi9EzM-52" style="rounded=0;orthogonalLoop=1;jettySize=auto;html=1;exitX=1;exitY=0.5;exitDx=0;exitDy=0;entryX=0;entryY=0.5;entryDx=0;entryDy=0;" edge="1" parent="1" source="PYq-RoQoB3Z_iifi9EzM-48" target="PYq-RoQoB3Z_iifi9EzM-51">
          <mxGeometry relative="1" as="geometry" />
        </mxCell>
        <mxCell id="PYq-RoQoB3Z_iifi9EzM-48" value="Protein" style="rounded=0;whiteSpace=wrap;html=1;" vertex="1" parent="1">
          <mxGeometry x="290" y="240" width="120" height="60" as="geometry" />
        </mxCell>
        <mxCell id="PYq-RoQoB3Z_iifi9EzM-51" value="&lt;u&gt;id&lt;/u&gt;" style="ellipse;whiteSpace=wrap;html=1;" vertex="1" parent="1">
          <mxGeometry x="473" y="250" width="110" height="40" as="geometry" />
        </mxCell>
      </root>
    </mxGraphModel>
  </diagram>
</mxfile>
